<svg width="120" height="24" viewBox="0 0 120 24" fill="none" xmlns="http://www.w3.org/2000/svg">
<path d="M48.526 21.1494H46.1819C43.54 21.1459 41.0073 20.0945 39.1398 18.2257C37.2723 16.357 36.2225 13.8237 36.2208 11.1818V9.97403C36.2225 7.33212 37.2723 4.79881 39.1398 2.93009C41.0073 1.06137 43.54 0.00993967 46.1819 0.00650024H52.526V3.90261H46.1819C44.5802 3.90604 43.0451 4.54428 41.9131 5.67746C40.7812 6.81065 40.1446 8.34636 40.1429 9.94807V11.1559C40.1446 12.7576 40.7812 14.2933 41.9131 15.4265C43.0451 16.5596 44.5802 17.1979 46.1819 17.2013H48.526C48.5921 17.1996 48.6548 17.1722 48.7009 17.1249C48.747 17.0775 48.7728 17.0141 48.7728 16.9481V13.0519C48.7736 13.019 48.7679 12.9862 48.7559 12.9555C48.7439 12.9248 48.7259 12.8968 48.7029 12.8732C48.6799 12.8496 48.6523 12.8309 48.6219 12.8181C48.5916 12.8053 48.559 12.7987 48.526 12.7987H44.4286V8.90258H48.526C49.6323 8.9043 50.6926 9.34496 51.4742 10.1278C52.2558 10.9106 52.6949 11.9717 52.6949 13.0779V16.974C52.6932 18.0797 52.2536 19.1398 51.4724 19.9223C50.6911 20.7047 49.6317 21.1459 48.526 21.1494Z" fill="white"/>
<path d="M19.6169 21.1753H15.7208V4.14932C15.7208 3.05169 16.1563 1.99896 16.9319 1.22221C17.7074 0.44546 18.7595 0.00822028 19.8571 0.00649985H19.9155C20.7654 0.00641229 21.5949 0.267302 22.2917 0.753904C22.9885 1.24051 23.519 1.92935 23.8117 2.72728L29.065 17.0974C29.0816 17.1391 29.1102 17.1749 29.1472 17.2003C29.1841 17.2257 29.2279 17.2396 29.2727 17.2403H29.3701C29.427 17.2403 29.4814 17.2177 29.5216 17.1775C29.5618 17.1373 29.5844 17.0828 29.5844 17.026V0H33.4805V17.026C33.4788 18.1236 33.0415 19.1757 32.2648 19.9512C31.488 20.7268 30.4353 21.1623 29.3376 21.1623H29.2402C28.3911 21.1629 27.5623 20.903 26.8656 20.4176C26.1688 19.9322 25.6378 19.2448 25.3441 18.4481L20.0909 4.07141C20.0742 4.02974 20.0456 3.99394 20.0086 3.96852C19.9716 3.9431 19.928 3.92921 19.8831 3.92857H19.8636C19.8062 3.93026 19.7517 3.95425 19.7117 3.99547C19.6717 4.03669 19.6493 4.09188 19.6494 4.14932L19.6169 21.1753Z" fill="white"/>
<path d="M3.92203 4.14286V8.5974H11.1234V12.4935H3.92203V17C3.92106 17.029 3.92617 17.0578 3.93701 17.0847C3.94785 17.1115 3.96425 17.1358 3.98504 17.156C4.00584 17.1762 4.03055 17.1918 4.05773 17.2018C4.08491 17.2119 4.11395 17.2161 4.14286 17.2143H12.948V21.1104H4.14286C3.59912 21.1113 3.06053 21.0049 2.55793 20.7974C2.05533 20.5899 1.59859 20.2853 1.21381 19.9012C0.829023 19.517 0.523759 19.0607 0.315481 18.5585C0.107203 18.0562 -6.70012e-07 17.5178 0 16.974V4.13636C0.00513493 3.03979 0.443424 1.98967 1.21944 1.21488C1.99545 0.440083 3.04628 0.00341481 4.14286 0H12.9545V3.89611H4.14286C4.11155 3.89589 4.0805 3.90233 4.05187 3.91501C4.02323 3.9277 3.99768 3.94633 3.9768 3.96967C3.95592 3.993 3.94018 4.0205 3.93075 4.05036C3.92131 4.08022 3.91834 4.11177 3.92203 4.14286Z" fill="white"/>
<path d="M87.3962 21.1623H75.6559C74.8208 21.1619 74.0053 20.9091 73.3165 20.4371C72.6276 19.965 72.0974 19.2958 71.7955 18.5172C71.4936 17.7386 71.4341 16.8869 71.6247 16.0739C71.8153 15.2608 72.2472 14.5244 72.8637 13.9611L83.3961 4.37663C83.4189 4.35624 83.4372 4.33119 83.4495 4.30319C83.4618 4.27519 83.4679 4.24488 83.4676 4.21429V4.14934C83.4676 4.12034 83.4619 4.09166 83.4508 4.06488C83.4397 4.03809 83.4235 4.01372 83.403 3.99322C83.3825 3.97272 83.3581 3.95648 83.3313 3.94538C83.3045 3.93429 83.2758 3.92858 83.2468 3.92858H71.5131V0.0324707H83.2468C84.3456 0.0324707 85.3993 0.468945 86.1763 1.24588C86.9532 2.02282 87.3897 3.07658 87.3897 4.17533V4.24025C87.3891 4.81742 87.2681 5.38812 87.0344 5.91587C86.8007 6.44362 86.4595 6.91682 86.0325 7.30521L75.5065 16.8831C75.4623 16.9258 75.4367 16.9841 75.4351 17.0455C75.4351 17.104 75.4584 17.1602 75.4998 17.2016C75.5412 17.243 75.5974 17.2662 75.6559 17.2662H87.3962V21.1623Z" fill="white"/>
<path d="M98.3148 20.5634C97.5076 20.5634 96.778 20.3849 96.126 20.0278C95.4817 19.6708 94.9733 19.1779 94.6007 18.5492C94.2359 17.9127 94.0535 17.2025 94.0535 16.4185C94.0535 15.6346 94.2359 14.9282 94.6007 14.2995C94.9733 13.663 95.4856 13.1663 96.1376 12.8092C96.7896 12.4522 97.5192 12.2737 98.3265 12.2737C98.9319 12.2737 99.4907 12.3746 100.003 12.5764C100.515 12.7782 100.95 13.0731 101.307 13.4612L100.76 14.0084C100.123 13.3642 99.32 13.0421 98.3497 13.0421C97.7055 13.0421 97.1195 13.1896 96.5917 13.4845C96.0639 13.7795 95.6486 14.1831 95.3459 14.6954C95.0509 15.2077 94.9035 15.782 94.9035 16.4185C94.9035 17.055 95.0509 17.6294 95.3459 18.1417C95.6486 18.6539 96.0639 19.0576 96.5917 19.3525C97.1195 19.6475 97.7055 19.7949 98.3497 19.7949C99.3277 19.7949 100.131 19.4689 100.76 18.8169L101.307 19.3642C100.95 19.7523 100.511 20.0511 99.9914 20.2607C99.4791 20.4625 98.9202 20.5634 98.3148 20.5634Z" fill="white"/>
<path d="M108.709 20.4935L106.846 17.8739C106.637 17.8972 106.419 17.9088 106.194 17.9088H104.005V20.4935H103.144V12.3435H106.194C107.234 12.3435 108.049 12.5919 108.639 13.0887C109.229 13.5854 109.524 14.2685 109.524 15.1378C109.524 15.7743 109.361 16.3137 109.035 16.7562C108.717 17.1908 108.259 17.5052 107.661 17.6992L109.652 20.4935H108.709ZM106.171 17.1753C106.978 17.1753 107.595 16.9968 108.022 16.6397C108.449 16.2827 108.662 15.782 108.662 15.1378C108.662 14.478 108.449 13.9735 108.022 13.6242C107.595 13.2672 106.978 13.0887 106.171 13.0887H104.005V17.1753H106.171Z" fill="white"/>
<path d="M120.022 12.3435V20.4935H119.195V13.9735L115.993 19.4573H115.586L112.384 14.0084V20.4935H111.557V12.3435H112.268L115.807 18.3862L119.312 12.3435H120.022Z" fill="white"/>
<path d="M68.7598 12.9675V21.1753H66.4286C66.2328 20.3066 65.8927 19.4768 65.4221 18.7208C65.2533 18.4351 65.065 18.1299 64.8377 17.8052L64.6364 17.5195C64.6364 17.5195 64.7403 17.0974 64.8377 16.3896C64.8377 16.2792 64.8377 16.1623 64.8831 16.0454C65.1364 13.9156 65.2078 9.88312 62.9351 6.64285L62.6039 6.22076C62.4416 5.98699 62.2792 5.77271 62.1234 5.57141C61.987 5.74673 61.8442 5.94155 61.6949 6.14934L61.3117 6.63635C59.013 9.88311 59.0844 13.9091 59.3636 16.039C59.3636 16.1754 59.3637 16.3052 59.4156 16.4286C59.461 16.7933 59.5259 17.1553 59.6104 17.513C59.539 17.6039 59.4741 17.7013 59.4156 17.7922C59.1884 18.1169 58.9935 18.4416 58.8247 18.7143C58.3542 19.4704 58.0139 20.3001 57.8182 21.1688H55.4935V12.9675C55.4935 5.87661 60.6884 1.3766 60.8767 1.18829L62.1754 0.0973816L63.4741 1.18829C63.5975 1.40907 68.7598 5.87661 68.7598 12.9675Z" fill="white"/>
<path d="M64.8377 21.1688L62.0975 24L59.3507 21.1753C59.6139 20.6824 60.006 20.2703 60.4852 19.983C60.9645 19.6956 61.5127 19.5438 62.0715 19.5438C62.6302 19.5438 63.1784 19.6956 63.6577 19.983C64.1369 20.2703 64.529 20.6824 64.7922 21.1753L64.8377 21.1688Z" fill="#FF6006"/>
</svg>
